<?xml version="1.0" encoding="UTF-8" standalone="no"?>
<svg width="85px" height="68px" viewBox="0 0 85 68" version="1.1" xmlns="http://www.w3.org/2000/svg" xmlns:xlink="http://www.w3.org/1999/xlink">
    <!-- Generator: Sketch 3.6 (26304) - http://www.bohemiancoding.com/sketch -->
    <title>120 - iPhone</title>
    <desc>Created with Sketch.</desc>
    <defs></defs>
    <g id="Page-1" stroke="none" stroke-width="1" fill="none" fill-rule="evenodd">
        <g id="120---iPhone" fill="#E64C87">
            <g id="dribble" transform="translate(-86.000000, 3.000000)">
                <path d="M129.293981,60.9467215 C112.391456,60.9467215 98.6407767,47.2765443 98.6407767,30.4737468 C98.6407767,13.6701772 112.391456,0 129.293981,0 C146.196505,0 159.947184,13.6701772 159.947184,30.4737468 C159.947184,47.2765443 146.196505,60.9467215 129.293981,60.9467215 L129.293981,60.9467215 Z M129.293981,2.3164557 C113.676117,2.3164557 100.970874,14.9473165 100.970874,30.4737468 C100.970874,45.9994051 113.676117,58.6302658 129.293981,58.6302658 C144.911068,58.6302658 157.617087,45.9994051 157.617087,30.4737468 C157.617087,14.9473165 144.911068,2.3164557 129.293981,2.3164557 L129.293981,2.3164557 Z" id="Dribbble-Circle"></path>
                <path d="M143.192233,25.6562911 C142.837282,24.816962 142.393786,24.008519 141.879612,23.2525823 C141.37165,22.5028228 140.786019,21.7970759 140.142913,21.1577342 C139.497476,20.5168481 138.789126,19.9361899 138.034175,19.4296582 C137.273786,18.9169494 136.459806,18.4791392 135.615534,18.1224051 C134.754175,17.7633544 133.853204,17.4830633 132.939029,17.298519 C132.000777,17.1070253 131.036117,17.008962 130.071456,17.008962 C129.105243,17.008962 128.140583,17.1070253 127.20233,17.298519 C126.287379,17.4830633 125.386408,17.7633544 124.525825,18.1224051 C123.681553,18.4791392 122.867573,18.9169494 122.105631,19.4296582 C121.351456,19.9361899 120.643107,20.5168481 119.998447,21.1577342 C119.35534,21.7970759 118.770485,22.5028228 118.261748,23.2525823 C117.747573,24.008519 117.303301,24.816962 116.94835,25.6562911 C116.583301,26.5118354 116.303689,27.4098481 116.115728,28.3186709 C115.925437,29.2491139 115.82835,30.2081266 115.82835,31.1671392 C115.82835,32.1300127 115.925437,33.0882532 116.115728,34.0210127 C116.303689,34.9298354 116.583301,35.8255316 116.94835,36.6795316 C117.303301,37.5188608 117.747573,38.3311646 118.261748,39.0871013 C118.770485,39.8360886 119.35534,40.5387468 119.998447,41.1819494 C120.643107,41.8212911 121.351456,42.4004051 122.105631,42.908481 C122.867573,43.4196456 123.681553,43.859 124.525825,44.2134177 C125.386408,44.5763291 126.287379,44.8527595 127.20233,45.0373038 C128.140583,45.2303418 129.105243,45.3276329 130.071456,45.3276329 C131.036117,45.3276329 132.000777,45.2303418 132.939029,45.0373038 C133.853204,44.8527595 134.754175,44.5763291 135.615534,44.2134177 C136.459806,43.859 137.273786,43.4196456 138.034175,42.908481 C138.789126,42.4004051 139.497476,41.8212911 140.142913,41.1819494 C140.786019,40.5387468 141.37165,39.8360886 141.879612,39.0871013 C142.393786,38.3311646 142.837282,37.5188608 143.192233,36.6795316 C143.555728,35.8255316 143.83767,34.9298354 144.024854,34.0210127 C144.215922,33.0882532 144.31301,32.1300127 144.31301,31.1671392 C144.31301,30.2081266 144.215922,29.2491139 144.024854,28.3186709 C143.83767,27.4098481 143.555728,26.5118354 143.192233,25.6562911 L143.192233,25.6562911 Z M130.071456,19.0767848 C133.149515,19.0767848 135.961942,20.2187975 138.104078,22.0951266 C138.073786,22.1399114 136.342524,24.7621392 131.749903,26.4724557 C129.67068,22.6750127 127.386408,19.657443 127.203883,19.4180759 C128.123495,19.1964684 129.083495,19.0767848 130.071456,19.0767848 L130.071456,19.0767848 Z M127.157282,19.4281139 C127.157282,19.4296582 127.154951,19.4312025 127.154951,19.4312025 C127.154951,19.4312025 127.140194,19.4342911 127.118447,19.4381519 C127.13165,19.4342911 127.143301,19.4327468 127.157282,19.4281139 L127.157282,19.4281139 Z M124.880777,20.2334684 C125.043107,20.4488987 127.292427,23.4803671 129.398058,27.1998228 C123.557282,28.7433544 118.487767,28.6815823 118.167767,28.6769494 C118.956893,24.9304684 121.487379,21.8256456 124.880777,20.2334684 L124.880777,20.2334684 Z M121.023689,39.248481 C119.085825,37.1057595 117.906796,34.2742785 117.906796,31.1671392 C117.906796,31.038962 117.91301,30.9123291 117.916893,30.7856962 C118.132816,30.7911013 124.142136,30.9262278 130.40466,29.0630253 C130.753398,29.7402025 131.086602,30.4312785 131.391068,31.1192658 C131.230291,31.1625063 131.071068,31.2103797 130.911845,31.2636582 C124.347961,33.3716329 121.018252,39.2423038 121.018252,39.2423038 C121.018252,39.2423038 121.023689,39.2469367 121.023689,39.248481 L121.023689,39.248481 Z M130.071456,43.2613544 C127.198447,43.2613544 124.56,42.2683671 122.47767,40.6121013 C122.434175,40.5781266 122.382913,40.5387468 122.321553,40.4893291 C122.382913,40.5387468 122.434175,40.5781266 122.47767,40.6121013 C122.54835,40.6669241 122.594175,40.7001266 122.594175,40.7001266 C122.594175,40.7001266 124.925825,35.6456203 132.139806,33.1469367 C132.16699,33.1368987 132.194951,33.1299494 132.222136,33.1222278 C133.933204,37.5420253 134.639223,41.2452658 134.819417,42.3023418 C133.360777,42.918519 131.754563,43.2613544 130.071456,43.2613544 L130.071456,43.2613544 Z M136.86835,41.1966203 C136.744078,40.4677089 136.095534,36.9181266 134.499417,32.5608734 C138.427184,31.9362025 141.829126,33.0071772 142.080777,33.0882532 C141.539417,36.4586962 139.598447,39.3635316 136.86835,41.1966203 L136.86835,41.1966203 Z M133.759223,30.6513418 C133.672233,30.4444051 133.586796,30.2366962 133.496699,30.0282152 C133.243495,29.4359747 132.970874,28.8499114 132.687379,28.2738861 C137.491262,26.3242025 139.440777,23.5220633 139.464078,23.4888608 C141.168932,25.5481899 142.202718,28.1789114 142.231456,31.0474557 C142.055146,31.0088481 137.938641,30.1285949 133.759223,30.6513418 Z M30.6532039,60.9467215 C13.7506796,60.9467215 0,47.2765443 0,30.4737468 C0,13.6701772 13.7506796,0 30.6532039,0 C47.5557282,0 61.3064078,13.6701772 61.3064078,30.4737468 C61.3064078,47.2765443 47.5557282,60.9467215 30.6532039,60.9467215 Z" id="Dribbble"></path>
            </g>
        </g>
    </g>
</svg>