<?xml version="1.0" encoding="UTF-8" standalone="no"?>
<svg width="85px" height="68px" viewBox="0 0 85 68" version="1.1" xmlns="http://www.w3.org/2000/svg" xmlns:xlink="http://www.w3.org/1999/xlink">
    <!-- Generator: Sketch 3.6 (26304) - http://www.bohemiancoding.com/sketch -->
    <title>120 - iPhone</title>
    <desc>Created with Sketch.</desc>
    <defs></defs>
    <g id="Page-1" stroke="none" stroke-width="1" fill="none" fill-rule="evenodd">
        <g id="120---iPhone" fill="#2A5B83">
            <g id="Group" transform="translate(12.000000, 2.000000)">
                <path d="M31.1953779,62.2635784 C13.9946831,62.2635784 0,48.2980339 0,31.1321836 C0,13.9655445 13.9946831,0 31.1953779,0 C48.396863,0 62.3907557,13.9655445 62.3907557,31.1321836 C62.3907557,48.2980339 48.396863,62.2635784 31.1953779,62.2635784 L31.1953779,62.2635784 Z M31.1953779,2.36650664 C15.3020656,2.36650664 2.37131033,15.2702785 2.37131033,31.1321836 C2.37131033,46.9932999 15.3020656,59.8970718 31.1953779,59.8970718 C47.0894806,59.8970718 60.0194454,46.9932999 60.0194454,31.1321836 C60.0194454,15.2702785 47.0894806,2.36650664 31.1953779,2.36650664 L31.1953779,2.36650664 Z" id="Instagram-Circle"></path>
                <path d="M42.996599,16.5939445 L20.9062623,16.5939445 C19.003681,16.5939445 17.4615389,18.1290185 17.4615389,20.0238015 L17.4615389,42.0851652 C17.4615389,43.9791593 19.003681,45.5150221 20.9062623,45.5150221 L42.996599,45.5150221 C44.8991803,45.5150221 46.4413224,43.9791593 46.4413224,42.0851652 L46.4413224,20.0238015 C46.4413224,18.1290185 44.8991803,16.5939445 42.996599,16.5939445 L42.996599,16.5939445 Z M38.2911288,21.1123945 C38.2911288,20.6138505 38.6966229,20.208389 39.1961789,20.208389 L41.9129101,20.208389 C42.4132566,20.208389 42.8187507,20.6138505 42.8187507,21.1123945 L42.8187507,23.8236223 C42.8187507,24.3229552 42.4132566,24.7276278 41.9129101,24.7276278 L39.1961789,24.7276278 C38.6966229,24.7276278 38.2911288,24.3229552 38.2911288,23.8236223 L38.2911288,21.1123945 L38.2911288,21.1123945 Z M31.9850242,25.5393396 C35.062985,25.5393396 37.5583939,28.0241716 37.5583939,31.08722 C37.5583939,34.1526349 35.062985,36.6366781 31.9850242,36.6366781 C28.9078538,36.6366781 26.4124449,34.1526349 26.4124449,31.08722 C26.4124449,28.0241716 28.9078538,25.5393396 31.9850242,25.5393396 L31.9850242,25.5393396 Z M43.7245912,41.8997888 C43.7245912,42.3983329 43.3190972,42.8037944 42.8187507,42.8037944 L21.0841106,42.8037944 C20.5837641,42.8037944 20.1782701,42.3983329 20.1782701,41.8997888 L20.1782701,28.3428611 L23.8008418,28.3428611 C23.3289511,29.0204709 23.1692828,30.2849743 23.1692828,31.08722 C23.1692828,35.9275149 27.1246285,39.865382 31.9850242,39.865382 C36.8462104,39.865382 40.801556,35.9275149 40.801556,31.08722 C40.801556,30.2849743 40.6869427,29.0394029 40.1020195,28.3428611 L43.7245912,28.3428611 L43.7245912,41.8997888 L43.7245912,41.8997888 Z" id="Instagram"></path>
            </g>
        </g>
    </g>
</svg>