<?xml version="1.0" encoding="UTF-8" standalone="no"?>
<svg width="2349px" height="1805px" viewBox="0 0 2349 1805" version="1.1" xmlns="http://www.w3.org/2000/svg" xmlns:xlink="http://www.w3.org/1999/xlink">
    <!-- Generator: Sketch 3.6 (26304) - http://www.bohemiancoding.com/sketch -->
    <title>Artboard 135</title>
    <desc>Created with Sketch.</desc>
    <defs></defs>
    <g id="Page-1" stroke="none" stroke-width="1" fill="none" fill-rule="evenodd">
        <g id="Artboard-135">
            <rect id="Rectangle-390-Copy" fill="#036F73" x="2" y="748" width="2345" height="1058"></rect>
            <g id="Group-3" transform="translate(1174.000000, 1678.000000) rotate(90.000000) translate(-1174.000000, -1678.000000) translate(-113.000000, 1221.000000)">
                <path d="M635.144594,192.936977 L529,192.936977 L589.160966,2.27373675e-13 L750.669262,346.385144" id="1" stroke="#BCF1C8" stroke-width="10"></path>
                <path d="M678.144594,248.936977 L572,248.936977 L632.160966,56 L792.538964,398.995026" id="1" stroke="#BCF1C8" stroke-width="10" transform="translate(682.269482, 227.497513) scale(-1, -1) translate(-682.269482, -227.497513) "></path>
                <path d="M678.144594,246.936977 L572,246.936977 L632.160966,54 L793.343559,399.322554" id="Path-19" stroke="#FEF2D8" transform="translate(682.671780, 226.661277) scale(-1, -1) translate(-682.671780, -226.661277) "></path>
                <path d="M635.144594,192.936977 L529,192.936977 L589.160966,2.27373675e-13 L750.306073,345.233937" id="Path-19" stroke="#FEF2D8"></path>
                <path d="M808.144594,192.936977 L702,192.936977 L762.160966,2.27373675e-13 L923.669262,346.385144" id="1" stroke="#BCF1C8" stroke-width="10"></path>
                <path d="M851.144594,248.936977 L745,248.936977 L805.160966,56 L965.538964,398.995026" id="1" stroke="#BCF1C8" stroke-width="10" transform="translate(855.269482, 227.497513) scale(-1, -1) translate(-855.269482, -227.497513) "></path>
                <path d="M851.144594,246.936977 L745,246.936977 L805.160966,54 L966.343559,399.322554" id="Path-19" stroke="#FEF2D8" transform="translate(855.671780, 226.661277) scale(-1, -1) translate(-855.671780, -226.661277) "></path>
                <path d="M808.144594,192.936977 L702,192.936977 L762.160966,2.27373675e-13 L923.306073,345.233937" id="Path-19" stroke="#FEF2D8"></path>
                <path d="M106.144594,192.936977 L2.27373675e-13,192.936977 L60.1609656,2.27373675e-13 L221.669262,346.385144" id="1" stroke="#BCF1C8" stroke-width="10"></path>
                <path d="M149.144594,248.936977 L43,248.936977 L103.160966,56 L263.538964,398.995026" id="1" stroke="#BCF1C8" stroke-width="10" transform="translate(153.269482, 227.497513) scale(-1, -1) translate(-153.269482, -227.497513) "></path>
                <path d="M149.144594,246.936977 L43,246.936977 L103.160966,54 L264.343559,399.322554" id="Path-19" stroke="#FEF2D8" transform="translate(153.671780, 226.661277) scale(-1, -1) translate(-153.671780, -226.661277) "></path>
                <path d="M106.144594,192.936977 L2.27373675e-13,192.936977 L60.1609656,2.27373675e-13 L221.306073,345.233937" id="Path-19" stroke="#FEF2D8"></path>
                <path d="M980.144594,192.936977 L874,192.936977 L934.160966,2.27373675e-13 L1095.66926,346.385144" id="1" stroke="#BCF1C8" stroke-width="10"></path>
                <path d="M1023.14459,248.936977 L917,248.936977 L977.160966,56 L1137.53896,398.995026" id="1" stroke="#BCF1C8" stroke-width="10" transform="translate(1027.269482, 227.497513) scale(-1, -1) translate(-1027.269482, -227.497513) "></path>
                <path d="M1023.14459,246.936977 L917,246.936977 L977.160966,54 L1138.34356,399.322554" id="Path-19" stroke="#FEF2D8" transform="translate(1027.671780, 226.661277) scale(-1, -1) translate(-1027.671780, -226.661277) "></path>
                <path d="M980.144594,192.936977 L874,192.936977 L934.160966,2.27373675e-13 L1095.30607,345.233937" id="Path-19" stroke="#FEF2D8"></path>
                <path d="M1151.14459,192.936977 L1045,192.936977 L1105.16097,2.27373675e-13 L1266.66926,346.385144" id="1" stroke="#BCF1C8" stroke-width="10"></path>
                <path d="M1194.14459,248.936977 L1088,248.936977 L1148.16097,56 L1308.53896,398.995026" id="1" stroke="#BCF1C8" stroke-width="10" transform="translate(1198.269482, 227.497513) scale(-1, -1) translate(-1198.269482, -227.497513) "></path>
                <path d="M1194.14459,246.936977 L1088,246.936977 L1148.16097,54 L1309.34356,399.322554" id="Path-19" stroke="#FEF2D8" transform="translate(1198.671780, 226.661277) scale(-1, -1) translate(-1198.671780, -226.661277) "></path>
                <path d="M1151.14459,192.936977 L1045,192.936977 L1105.16097,2.27373675e-13 L1266.30607,345.233937" id="Path-19" stroke="#FEF2D8"></path>
                <path d="M1499.14459,192.936977 L1393,192.936977 L1453.16097,2.27373675e-13 L1614.66926,346.385144" id="1" stroke="#BCF1C8" stroke-width="10"></path>
                <path d="M1499.14459,192.936977 L1393,192.936977 L1453.16097,2.27373675e-13 L1614.30607,345.233937" id="Path-19" stroke="#FEF2D8"></path>
                <path d="M1327.14459,192.936977 L1221,192.936977 L1281.16097,2.27373675e-13 L1442.66926,346.385144" id="1" stroke="#BCF1C8" stroke-width="10"></path>
                <path d="M1370.14459,248.936977 L1264,248.936977 L1324.16097,56 L1484.53896,398.995026" id="1" stroke="#BCF1C8" stroke-width="10" transform="translate(1374.269482, 227.497513) scale(-1, -1) translate(-1374.269482, -227.497513) "></path>
                <path d="M1370.14459,246.936977 L1264,246.936977 L1324.16097,54 L1485.34356,399.322554" id="Path-19" stroke="#FEF2D8" transform="translate(1374.671780, 226.661277) scale(-1, -1) translate(-1374.671780, -226.661277) "></path>
                <path d="M1327.14459,192.936977 L1221,192.936977 L1281.16097,2.27373675e-13 L1442.30607,345.233937" id="Path-19" stroke="#FEF2D8"></path>
                <path d="M321.144594,440.936977 L215,440.936977 L275.160966,248 L436.669262,594.385144" id="1" stroke="#BCF1C8" stroke-width="10"></path>
                <path d="M364.144594,496.936977 L258,496.936977 L318.160966,304 L478.538964,646.995026" id="1" stroke="#BCF1C8" stroke-width="10" transform="translate(368.269482, 475.497513) scale(-1, -1) translate(-368.269482, -475.497513) "></path>
                <path d="M364.144594,494.936977 L258,494.936977 L318.160966,302 L479.343559,647.322554" id="Path-19" stroke="#FEF2D8" transform="translate(368.671780, 474.661277) scale(-1, -1) translate(-368.671780, -474.661277) "></path>
                <path d="M321.144594,440.936977 L215,440.936977 L275.160966,248 L436.306073,593.233937" id="Path-19" stroke="#FEF2D8"></path>
                <path d="M502.144594,440.936977 L396,440.936977 L456.160966,248 L617.669262,594.385144" id="1" stroke="#BCF1C8" stroke-width="10"></path>
                <path d="M545.144594,496.936977 L439,496.936977 L499.160966,304 L659.538964,646.995026" id="1" stroke="#BCF1C8" stroke-width="10" transform="translate(549.269482, 475.497513) scale(-1, -1) translate(-549.269482, -475.497513) "></path>
                <path d="M545.144594,494.936977 L439,494.936977 L499.160966,302 L660.343559,647.322554" id="Path-19" stroke="#FEF2D8" transform="translate(549.671780, 474.661277) scale(-1, -1) translate(-549.671780, -474.661277) "></path>
                <path d="M502.144594,440.936977 L396,440.936977 L456.160966,248 L617.306073,593.233937" id="Path-19" stroke="#FEF2D8"></path>
                <path d="M678.144594,440.936977 L572,440.936977 L632.160966,248 L793.669262,594.385144" id="1" stroke="#BCF1C8" stroke-width="10"></path>
                <path d="M721.144594,496.936977 L615,496.936977 L675.160966,304 L835.538964,646.995026" id="1" stroke="#BCF1C8" stroke-width="10" transform="translate(725.269482, 475.497513) scale(-1, -1) translate(-725.269482, -475.497513) "></path>
                <path d="M721.144594,494.936977 L615,494.936977 L675.160966,302 L836.343559,647.322554" id="Path-19" stroke="#FEF2D8" transform="translate(725.671780, 474.661277) scale(-1, -1) translate(-725.671780, -474.661277) "></path>
                <path d="M678.144594,440.936977 L572,440.936977 L632.160966,248 L793.306073,593.233937" id="Path-19" stroke="#FEF2D8"></path>
                <path d="M851.144594,440.936977 L745,440.936977 L805.160966,248 L966.669262,594.385144" id="1" stroke="#BCF1C8" stroke-width="10"></path>
                <path d="M894.144594,496.936977 L788,496.936977 L848.160966,304 L1008.53896,646.995026" id="1" stroke="#BCF1C8" stroke-width="10" transform="translate(898.269482, 475.497513) scale(-1, -1) translate(-898.269482, -475.497513) "></path>
                <path d="M894.144594,494.936977 L788,494.936977 L848.160966,302 L1009.34356,647.322554" id="Path-19" stroke="#FEF2D8" transform="translate(898.671780, 474.661277) scale(-1, -1) translate(-898.671780, -474.661277) "></path>
                <path d="M851.144594,440.936977 L745,440.936977 L805.160966,248 L966.306073,593.233937" id="Path-19" stroke="#FEF2D8"></path>
                <path d="M149.144594,440.936977 L43,440.936977 L103.160966,248 L264.669262,594.385144" id="1" stroke="#BCF1C8" stroke-width="10"></path>
                <path d="M192.144594,496.936977 L86,496.936977 L146.160966,304 L306.538964,646.995026" id="1" stroke="#BCF1C8" stroke-width="10" transform="translate(196.269482, 475.497513) scale(-1, -1) translate(-196.269482, -475.497513) "></path>
                <path d="M192.144594,494.936977 L86,494.936977 L146.160966,302 L307.343559,647.322554" id="Path-19" stroke="#FEF2D8" transform="translate(196.671780, 474.661277) scale(-1, -1) translate(-196.671780, -474.661277) "></path>
                <path d="M149.144594,440.936977 L43,440.936977 L103.160966,248 L264.306073,593.233937" id="Path-19" stroke="#FEF2D8"></path>
                <path d="M1023.14459,440.936977 L917,440.936977 L977.160966,248 L1138.66926,594.385144" id="1" stroke="#BCF1C8" stroke-width="10"></path>
                <path d="M1066.14459,496.936977 L960,496.936977 L1020.16097,304 L1180.53896,646.995026" id="1" stroke="#BCF1C8" stroke-width="10" transform="translate(1070.269482, 475.497513) scale(-1, -1) translate(-1070.269482, -475.497513) "></path>
                <path d="M1066.14459,494.936977 L960,494.936977 L1020.16097,302 L1181.34356,647.322554" id="Path-19" stroke="#FEF2D8" transform="translate(1070.671780, 474.661277) scale(-1, -1) translate(-1070.671780, -474.661277) "></path>
                <path d="M1023.14459,440.936977 L917,440.936977 L977.160966,248 L1138.30607,593.233937" id="Path-19" stroke="#FEF2D8"></path>
                <path d="M1194.14459,440.936977 L1088,440.936977 L1148.16097,248 L1309.66926,594.385144" id="1" stroke="#BCF1C8" stroke-width="10"></path>
                <path d="M1237.14459,496.936977 L1131,496.936977 L1191.16097,304 L1351.53896,646.995026" id="1" stroke="#BCF1C8" stroke-width="10" transform="translate(1241.269482, 475.497513) scale(-1, -1) translate(-1241.269482, -475.497513) "></path>
                <path d="M1237.14459,494.936977 L1131,494.936977 L1191.16097,302 L1352.34356,647.322554" id="Path-19" stroke="#FEF2D8" transform="translate(1241.671780, 474.661277) scale(-1, -1) translate(-1241.671780, -474.661277) "></path>
                <path d="M1194.14459,440.936977 L1088,440.936977 L1148.16097,248 L1309.30607,593.233937" id="Path-19" stroke="#FEF2D8"></path>
                <path d="M1370.14459,440.936977 L1264,440.936977 L1324.16097,248 L1485.66926,594.385144" id="1" stroke="#BCF1C8" stroke-width="10"></path>
                <path d="M1413.14459,496.936977 L1307,496.936977 L1367.16097,304 L1527.53896,646.995026" id="1" stroke="#BCF1C8" stroke-width="10" transform="translate(1417.269482, 475.497513) scale(-1, -1) translate(-1417.269482, -475.497513) "></path>
                <path d="M1413.14459,494.936977 L1307,494.936977 L1367.16097,302 L1528.34356,647.322554" id="Path-19" stroke="#FEF2D8" transform="translate(1417.671780, 474.661277) scale(-1, -1) translate(-1417.671780, -474.661277) "></path>
                <path d="M1370.14459,440.936977 L1264,440.936977 L1324.16097,248 L1485.30607,593.233937" id="Path-19" stroke="#FEF2D8"></path>
                <path d="M364.144594,706.936977 L258,706.936977 L318.160966,514 L479.669262,860.385144" id="1" stroke="#BCF1C8" stroke-width="10"></path>
                <path d="M407.144594,762.936977 L301,762.936977 L361.160966,570 L521.538964,912.995026" id="1" stroke="#BCF1C8" stroke-width="10" transform="translate(411.269482, 741.497513) scale(-1, -1) translate(-411.269482, -741.497513) "></path>
                <path d="M407.144594,760.936977 L301,760.936977 L361.160966,568 L522.343559,913.322554" id="Path-19" stroke="#FEF2D8" transform="translate(411.671780, 740.661277) scale(-1, -1) translate(-411.671780, -740.661277) "></path>
                <path d="M364.144594,706.936977 L258,706.936977 L318.160966,514 L479.306073,859.233937" id="Path-19" stroke="#FEF2D8"></path>
                <path d="M545.144594,706.936977 L439,706.936977 L499.160966,514 L660.669262,860.385144" id="1" stroke="#BCF1C8" stroke-width="10"></path>
                <path d="M588.144594,762.936977 L482,762.936977 L542.160966,570 L702.538964,912.995026" id="1" stroke="#BCF1C8" stroke-width="10" transform="translate(592.269482, 741.497513) scale(-1, -1) translate(-592.269482, -741.497513) "></path>
                <path d="M588.144594,760.936977 L482,760.936977 L542.160966,568 L703.343559,913.322554" id="Path-19" stroke="#FEF2D8" transform="translate(592.671780, 740.661277) scale(-1, -1) translate(-592.671780, -740.661277) "></path>
                <path d="M545.144594,706.936977 L439,706.936977 L499.160966,514 L660.306073,859.233937" id="Path-19" stroke="#FEF2D8"></path>
                <path d="M721.144594,706.936977 L615,706.936977 L675.160966,514 L836.669262,860.385144" id="1" stroke="#BCF1C8" stroke-width="10"></path>
                <path d="M764.144594,762.936977 L658,762.936977 L718.160966,570 L878.538964,912.995026" id="1" stroke="#BCF1C8" stroke-width="10" transform="translate(768.269482, 741.497513) scale(-1, -1) translate(-768.269482, -741.497513) "></path>
                <path d="M764.144594,760.936977 L658,760.936977 L718.160966,568 L879.343559,913.322554" id="Path-19" stroke="#FEF2D8" transform="translate(768.671780, 740.661277) scale(-1, -1) translate(-768.671780, -740.661277) "></path>
                <path d="M721.144594,706.936977 L615,706.936977 L675.160966,514 L836.306073,859.233937" id="Path-19" stroke="#FEF2D8"></path>
                <path d="M894.144594,706.936977 L788,706.936977 L848.160966,514 L1009.66926,860.385144" id="1" stroke="#BCF1C8" stroke-width="10"></path>
                <path d="M937.144594,762.936977 L831,762.936977 L891.160966,570 L1051.53896,912.995026" id="1" stroke="#BCF1C8" stroke-width="10" transform="translate(941.269482, 741.497513) scale(-1, -1) translate(-941.269482, -741.497513) "></path>
                <path d="M937.144594,760.936977 L831,760.936977 L891.160966,568 L1052.34356,913.322554" id="Path-19" stroke="#FEF2D8" transform="translate(941.671780, 740.661277) scale(-1, -1) translate(-941.671780, -740.661277) "></path>
                <path d="M894.144594,706.936977 L788,706.936977 L848.160966,514 L1009.30607,859.233937" id="Path-19" stroke="#FEF2D8"></path>
                <path d="M192.144594,706.936977 L86,706.936977 L146.160966,514 L307.669262,860.385144" id="1" stroke="#BCF1C8" stroke-width="10"></path>
                <path d="M235.144594,762.936977 L129,762.936977 L189.160966,570 L349.538964,912.995026" id="1" stroke="#BCF1C8" stroke-width="10" transform="translate(239.269482, 741.497513) scale(-1, -1) translate(-239.269482, -741.497513) "></path>
                <path d="M235.144594,760.936977 L129,760.936977 L189.160966,568 L350.343559,913.322554" id="Path-19" stroke="#FEF2D8" transform="translate(239.671780, 740.661277) scale(-1, -1) translate(-239.671780, -740.661277) "></path>
                <path d="M192.144594,706.936977 L86,706.936977 L146.160966,514 L307.306073,859.233937" id="Path-19" stroke="#FEF2D8"></path>
                <path d="M1066.14459,706.936977 L960,706.936977 L1020.16097,514 L1181.66926,860.385144" id="1" stroke="#BCF1C8" stroke-width="10"></path>
                <path d="M1109.14459,762.936977 L1003,762.936977 L1063.16097,570 L1223.53896,912.995026" id="1" stroke="#BCF1C8" stroke-width="10" transform="translate(1113.269482, 741.497513) scale(-1, -1) translate(-1113.269482, -741.497513) "></path>
                <path d="M1109.14459,760.936977 L1003,760.936977 L1063.16097,568 L1224.34356,913.322554" id="Path-19" stroke="#FEF2D8" transform="translate(1113.671780, 740.661277) scale(-1, -1) translate(-1113.671780, -740.661277) "></path>
                <path d="M1066.14459,706.936977 L960,706.936977 L1020.16097,514 L1181.30607,859.233937" id="Path-19" stroke="#FEF2D8"></path>
                <path d="M1237.14459,706.936977 L1131,706.936977 L1191.16097,514 L1352.66926,860.385144" id="1" stroke="#BCF1C8" stroke-width="10"></path>
                <path d="M1280.14459,762.936977 L1174,762.936977 L1234.16097,570 L1394.53896,912.995026" id="1" stroke="#BCF1C8" stroke-width="10" transform="translate(1284.269482, 741.497513) scale(-1, -1) translate(-1284.269482, -741.497513) "></path>
                <path d="M1280.14459,760.936977 L1174,760.936977 L1234.16097,568 L1395.34356,913.322554" id="Path-19" stroke="#FEF2D8" transform="translate(1284.671780, 740.661277) scale(-1, -1) translate(-1284.671780, -740.661277) "></path>
                <path d="M1237.14459,706.936977 L1131,706.936977 L1191.16097,514 L1352.30607,859.233937" id="Path-19" stroke="#FEF2D8"></path>
                <path d="M1413.14459,706.936977 L1307,706.936977 L1367.16097,514 L1528.66926,860.385144" id="1" stroke="#BCF1C8" stroke-width="10"></path>
                <path d="M1456.14459,762.936977 L1350,762.936977 L1410.16097,570 L1570.53896,912.995026" id="1" stroke="#BCF1C8" stroke-width="10" transform="translate(1460.269482, 741.497513) scale(-1, -1) translate(-1460.269482, -741.497513) "></path>
                <path d="M1456.14459,760.936977 L1350,760.936977 L1410.16097,568 L1571.34356,913.322554" id="Path-19" stroke="#FEF2D8" transform="translate(1460.671780, 740.661277) scale(-1, -1) translate(-1460.671780, -740.661277) "></path>
                <path d="M1413.14459,706.936977 L1307,706.936977 L1367.16097,514 L1528.30607,859.233937" id="Path-19" stroke="#FEF2D8"></path>
                <path d="M278.144594,192.936977 L172,192.936977 L232.160966,2.27373675e-13 L393.669262,346.385144" id="1" stroke="#BCF1C8" stroke-width="10"></path>
                <path d="M321.144594,248.936977 L215,248.936977 L275.160966,56 L435.538964,398.995026" id="1" stroke="#BCF1C8" stroke-width="10" transform="translate(325.269482, 227.497513) scale(-1, -1) translate(-325.269482, -227.497513) "></path>
                <path d="M321.144594,246.936977 L215,246.936977 L275.160966,54 L436.343559,399.322554" id="Path-19" stroke="#FEF2D8" transform="translate(325.671780, 226.661277) scale(-1, -1) translate(-325.671780, -226.661277) "></path>
                <path d="M278.144594,192.936977 L172,192.936977 L232.160966,2.27373675e-13 L393.306073,345.233937" id="Path-19" stroke="#FEF2D8"></path>
                <path d="M459.144594,192.936977 L353,192.936977 L413.160966,2.27373675e-13 L574.669262,346.385144" id="1" stroke="#BCF1C8" stroke-width="10"></path>
                <path d="M502.144594,248.936977 L396,248.936977 L456.160966,56 L616.538964,398.995026" id="1" stroke="#BCF1C8" stroke-width="10" transform="translate(506.269482, 227.497513) scale(-1, -1) translate(-506.269482, -227.497513) "></path>
                <path d="M502.144594,246.936977 L396,246.936977 L456.160966,54 L617.343559,399.322554" id="Path-19" stroke="#FEF2D8" transform="translate(506.671780, 226.661277) scale(-1, -1) translate(-506.671780, -226.661277) "></path>
                <path d="M459.144594,192.936977 L353,192.936977 L413.160966,2.27373675e-13 L574.306073,345.233937" id="Path-19" stroke="#FEF2D8"></path>
            </g>
            <rect id="Rectangle-395" fill="#FFFFFF" x="59" y="0" width="2231" height="748"></rect>
            <g id="marque2" transform="translate(1769.000000, 76.000000)">
                <path d="M143.573648,265.535466 L0,265.535466 L81.3751216,0 L299.835,476.72324" id="back" stroke="#002540" stroke-width="24"></path>
                <path d="M213.311113,285.464534 L356.88476,285.464534 L275.509639,551 L58.5786269,78.9425144" id="back" stroke="#002540" stroke-width="24"></path>
                <path d="M213.033483,285.133121 L357.973074,285.133126 L276.597952,550.668592 L58.5786269,75.4077749" id="line" stroke="#FFF6EA" stroke-width="2"></path>
                <path d="M145.700239,265.535471 L0,265.535466 L81.3751216,-2.84217094e-14 L299.343743,475.138856" id="line" stroke="#FEF2D8" stroke-width="2"></path>
            </g>
            <g id="Group-2" transform="translate(309.000000, 75.000000)">
                <path d="M165.69957,301.458282 L0,301.458282 L93.9157215,0 L348.156464,546.253293" id="Path-19" stroke="#002540" stroke-width="18"></path>
                <path d="M340.670648,542.600897 L355.028869,539.752869 L360.050477,550 L340.220051,550 L340.670648,542.600897 Z" id="Rectangle-396" fill="#002540"></path>
            </g>
            <path d="M1139.34929,340.58519 L994,340.58519 L1076.38153,76 L1297.5432,551.017183" id="Path-19" stroke="#183256" stroke-width="20"></path>
            <path d="M1209.64614,361.782936 L1354.99543,361.782936 L1272.6139,626.368126 L1053,156" id="Path-19" stroke="#183256" stroke-width="20"></path>
            <text id="Monogram" font-family="Vanadine-Bold, Vanadine" font-size="48" font-weight="bold" letter-spacing="4.07634115" fill="#EF504F">
                <tspan x="91" y="65">Monogram</tspan>
            </text>
            <text id="Visual-Marque" font-family="Vanadine-Bold, Vanadine" font-size="48" font-weight="bold" letter-spacing="4.07634115" fill="#EF504F">
                <tspan x="1941.39819" y="65">Visual Marque</tspan>
            </text>
        </g>
    </g>
</svg>