<?xml version="1.0" encoding="UTF-8" standalone="no"?>
<svg width="85px" height="68px" viewBox="0 0 85 68" version="1.1" xmlns="http://www.w3.org/2000/svg" xmlns:xlink="http://www.w3.org/1999/xlink">
    <!-- Generator: Sketch 3.6 (26304) - http://www.bohemiancoding.com/sketch -->
    <title>120 - iPhone</title>
    <desc>Created with Sketch.</desc>
    <defs></defs>
    <g id="Page-1" stroke="none" stroke-width="1" fill="none" fill-rule="evenodd">
        <g id="120---iPhone">
            <g id="Group-2" transform="translate(12.000000, 2.000000)">
                <path d="M31.1953779,62.2635784 C13.9946831,62.2635784 0,48.2980339 0,31.1321836 C0,13.9655445 13.9946831,0 31.1953779,0 C48.396863,0 62.3907557,13.9655445 62.3907557,31.1321836 C62.3907557,48.2980339 48.396863,62.2635784 31.1953779,62.2635784 L31.1953779,62.2635784 Z M31.1953779,2.36650664 C15.3020656,2.36650664 2.37131033,15.2702785 2.37131033,31.1321836 C2.37131033,46.9932999 15.3020656,59.8970718 31.1953779,59.8970718 C47.0894806,59.8970718 60.0194454,46.9932999 60.0194454,31.1321836 C60.0194454,15.2702785 47.0894806,2.36650664 31.1953779,2.36650664 L31.1953779,2.36650664 Z" id="Instagram-Circle" fill="#2A5B83"></path>
                <path d="M24.5239258,15.9069779 L32.3538291,11.0436976 L32.1275537,21.5611009 L37.7902487,21.6148975 L37.7902482,27.9078153 L31.9987607,27.6700793 C31.9987607,27.6700793 31.5629948,42.7821021 31.9987604,44.5225993 C32.434526,46.2630965 37.4493831,44.5226001 37.4493831,44.5226001 L38.2637808,50.8113301 C38.2637808,50.8113301 32.0213562,52.8504469 28.4167666,51.4501241 C24.8121771,50.0498014 24.1759589,47.2539887 24.1472305,45.4977044 C24.1185021,43.74142 24.1759588,27.9651554 24.1759588,27.9651554 L20.5513562,27.9078153 L20.5513562,21.7327993 L24.5239256,21.7327993 L24.5239258,15.9069779 Z" id="Path-205" stroke="#2A5B83" stroke-width="2"></path>
            </g>
        </g>
    </g>
</svg>