<?xml version="1.0" encoding="UTF-8" standalone="no"?>
<svg width="85px" height="68px" viewBox="0 0 85 68" version="1.1" xmlns="http://www.w3.org/2000/svg" xmlns:xlink="http://www.w3.org/1999/xlink">
    <!-- Generator: Sketch 3.6 (26304) - http://www.bohemiancoding.com/sketch -->
    <title>120 - iPhone</title>
    <desc>Created with Sketch.</desc>
    <defs></defs>
    <g id="Page-1" stroke="none" stroke-width="1" fill="none" fill-rule="evenodd">
        <g id="120---iPhone" fill="#24A9E6">
            <g id="twitter" transform="translate(12.000000, 3.000000)">
                <path d="M30.9733165,61.9458481 C13.8950633,61.9458481 0,48.0515696 0,30.9733165 C0,13.8942785 13.8950633,0 30.9733165,0 C48.0523544,0 61.9466329,13.8942785 61.9466329,30.9733165 C61.9466329,48.0515696 48.0523544,61.9458481 30.9733165,61.9458481 L30.9733165,61.9458481 Z M30.9733165,2.35443038 C15.1931392,2.35443038 2.35443038,15.1923544 2.35443038,30.9733165 C2.35443038,46.7534937 15.1931392,59.5914177 30.9733165,59.5914177 C46.7542785,59.5914177 59.5922025,46.7534937 59.5922025,30.9733165 C59.5922025,15.1923544 46.7542785,2.35443038 30.9733165,2.35443038 L30.9733165,2.35443038 Z" id="Twitter-Circle"></path>
                <path d="M44.4987342,19.0128101 C43.3325063,19.7207089 42.0438481,20.2355443 40.6665063,20.5110127 C39.5693418,19.3102532 38.0012911,18.5599747 36.2652911,18.5599747 C32.9376962,18.5599747 30.2371646,21.3287848 30.2371646,24.7434937 C30.2371646,25.2277215 30.288962,25.6986076 30.392557,26.151443 C25.3807595,25.8932405 20.9379494,23.4344304 17.9619494,19.6885316 C17.4424051,20.6051899 17.1457468,21.6686076 17.1457468,22.8003038 C17.1457468,24.9451899 18.2099494,26.8381519 19.8290127,27.9470886 C18.8417215,27.9172658 17.9101519,27.6363038 17.095519,27.1756203 L17.095519,27.2517468 C17.095519,30.2489367 19.174481,32.7493418 21.935443,33.3151899 C21.4300253,33.4603797 20.8963544,33.5325823 20.3462025,33.5325823 C19.9577215,33.5325823 19.5786582,33.4956962 19.2113671,33.4234937 C19.9789114,35.8791646 22.2046329,37.6677468 24.8439494,37.7148354 C22.7806835,39.3747089 20.179038,40.3635696 17.3545063,40.3635696 C16.8679241,40.3635696 16.3868354,40.3353165 15.9159494,40.2788101 C18.5843038,42.0305063 21.7557215,43.0546835 25.1602278,43.0546835 C36.253519,43.0546835 42.3177468,33.6338228 42.3177468,25.4615949 C42.3177468,25.1924051 42.313038,24.924 42.3028354,24.6603038 C43.4808354,23.7875949 44.5042278,22.6998481 45.309443,21.4598481 C44.2295443,21.9511392 43.0664557,22.2838987 41.8468608,22.4330127 C43.0923544,21.6686076 44.0482532,20.4560759 44.4987342,19.0128101" id="Twitter"></path>
            </g>
        </g>
    </g>
</svg>